<svg viewBox="0 0 700 220" xmlns="http://www.w3.org/2000/svg">
  <title>Babble logo</title>
  <defs>
    <linearGradient id="backBubbleGrad" gradientUnits="userSpaceOnUse" x1="20" y1="50" x2="145" y2="160">
      <stop offset="0%" stop-color="#9FE8FF"/>
      <stop offset="100%" stop-color="#1B6FB8"/>
    </linearGradient>
  </defs>

  <!-- icon: two overlapping chat bubbles -->
  <rect x="45" y="125" width="26" height="26" rx="6" fill="url(#backBubbleGrad)" transform="rotate(45 58 138)"/>
  <rect x="28" y="58" width="108" height="82" rx="20" ry="20" fill="url(#backBubbleGrad)"/>

  <rect x="92" y="72" width="26" height="26" rx="6" fill="#EAF6FF" transform="rotate(45 105 85)"/>
  <rect x="92" y="18" width="92" height="70" rx="16" ry="16" fill="#EAF6FF"/>
  <circle cx="120" cy="53" r="6" fill="#101826"/>
  <circle cx="138" cy="53" r="6" fill="#101826"/>
  <circle cx="156" cy="53" r="6" fill="#101826"/>

  <!-- wordmark (vector outlines, font-independent) -->
  <g fill="#EAF6FF">
    <path transform="translate(214.00,130.00) scale(0.12,-0.12)" d="M422 -18Q354 -18 303.5 10.0Q253 38 224.5 92.0Q196 146 194 224H210V0H66V730H248V354L208 314Q211 395 239.0 452.0Q267 509 316.5 538.5Q366 568 431 568Q487 568 532.0 547.5Q577 527 608.5 489.5Q640 452 657.0 401.0Q674 350 674 289V265Q674 204 657.0 152.5Q640 101 607.0 62.5Q574 24 527.5 3.0Q481 -18 422 -18ZM370 132Q406 132 433.5 150.5Q461 169 476.5 202.0Q492 235 492 277Q492 320 476.5 351.5Q461 383 434.0 400.5Q407 418 370 418Q337 418 308.5 403.0Q280 388 262.0 359.0Q244 330 244 289V255Q244 216 263.0 188.5Q282 161 311.0 146.5Q340 132 370 132Z"/>
    <path transform="translate(297.76,130.00) scale(0.12,-0.12)" d="M400 0V162H370V335Q370 373 352.5 391.5Q335 410 295 410Q276 410 239.0 409.0Q202 408 161.0 406.0Q120 404 86 402V554Q110 556 143.0 558.0Q176 560 211.5 561.0Q247 562 277 562Q362 562 421.5 537.0Q481 512 512.5 462.0Q544 412 544 335V0ZM225 -14Q167 -14 122.0 7.0Q77 28 51.5 67.5Q26 107 26 162Q26 224 59.0 262.5Q92 301 150.0 319.0Q208 337 283 337H390V243H283Q246 243 226.0 224.5Q206 206 206 175Q206 145 226.0 126.5Q246 108 283 108Q307 108 325.5 116.5Q344 125 356.0 146.0Q368 167 370 204L412 164Q407 107 384.5 67.5Q362 28 322.5 7.0Q283 -14 225 -14Z"/>
    <path transform="translate(368.56,130.00) scale(0.12,-0.12)" d="M422 -18Q354 -18 303.5 10.0Q253 38 224.5 92.0Q196 146 194 224H210V0H66V730H248V354L208 314Q211 395 239.0 452.0Q267 509 316.5 538.5Q366 568 431 568Q487 568 532.0 547.5Q577 527 608.5 489.5Q640 452 657.0 401.0Q674 350 674 289V265Q674 204 657.0 152.5Q640 101 607.0 62.5Q574 24 527.5 3.0Q481 -18 422 -18ZM370 132Q406 132 433.5 150.5Q461 169 476.5 202.0Q492 235 492 277Q492 320 476.5 351.5Q461 383 434.0 400.5Q407 418 370 418Q337 418 308.5 403.0Q280 388 262.0 359.0Q244 330 244 289V255Q244 216 263.0 188.5Q282 161 311.0 146.5Q340 132 370 132Z"/>
    <path transform="translate(452.32,130.00) scale(0.12,-0.12)" d="M422 -18Q354 -18 303.5 10.0Q253 38 224.5 92.0Q196 146 194 224H210V0H66V730H248V354L208 314Q211 395 239.0 452.0Q267 509 316.5 538.5Q366 568 431 568Q487 568 532.0 547.5Q577 527 608.5 489.5Q640 452 657.0 401.0Q674 350 674 289V265Q674 204 657.0 152.5Q640 101 607.0 62.5Q574 24 527.5 3.0Q481 -18 422 -18ZM370 132Q406 132 433.5 150.5Q461 169 476.5 202.0Q492 235 492 277Q492 320 476.5 351.5Q461 383 434.0 400.5Q407 418 370 418Q337 418 308.5 403.0Q280 388 262.0 359.0Q244 330 244 289V255Q244 216 263.0 188.5Q282 161 311.0 146.5Q340 132 370 132Z"/>
    <path transform="translate(536.08,130.00) scale(0.12,-0.12)" d="M74 0V730H256V0ZM12 598V730H256V598Z"/>
    <path transform="translate(573.76,130.00) scale(0.12,-0.12)" d="M325 -20Q255 -20 201.0 4.0Q147 28 110.0 69.0Q73 110 53.5 161.0Q34 212 34 266V286Q34 342 53.5 393.5Q73 445 109.5 485.0Q146 525 199.0 548.5Q252 572 319 572Q408 572 470.0 532.0Q532 492 565.0 426.5Q598 361 598 284V226H110V324H493L430 280Q430 327 417.5 359.5Q405 392 380.5 409.0Q356 426 319 426Q283 426 256.5 409.5Q230 393 216.0 359.5Q202 326 202 275Q202 229 215.0 195.5Q228 162 255.0 144.0Q282 126 325 126Q363 126 387.5 139.0Q412 152 422 174H588Q576 118 540.5 74.0Q505 30 450.5 5.0Q396 -20 325 -20Z"/>
  </g>
</svg>